<?xml version="1.0" encoding="UTF-8"?>
<svg xmlns="http://www.w3.org/2000/svg" width="1250" height="1390" viewBox="0 0 1250 1390">
  <rect width="1250" height="1390" fill="#f6f3e8"/>
  <rect x="38" y="38" width="1174" height="1314" rx="42" fill="#f6f3e8" stroke="#04120f" stroke-width="22"/>
  <rect x="66" y="66" width="1118" height="1258" rx="20" fill="none" stroke="#35d6a4" stroke-width="5"/>
  <rect x="88" y="88" width="1074" height="1214" rx="18" fill="none" stroke="#04120f" stroke-width="2" stroke-dasharray="22 18" opacity="0.32"/>

  <rect x="58" y="58" width="86" height="86" rx="13" fill="#04120f"/>
  <rect x="80" y="80" width="42" height="42" rx="8" fill="#f6f3e8"/>
  <circle cx="101" cy="101" r="13" fill="#04120f"/>
  <rect x="1106" y="58" width="86" height="86" rx="13" fill="#04120f"/>
  <rect x="1128" y="80" width="42" height="42" rx="8" fill="#f6f3e8"/>
  <path d="M1149 84 L1169 118 L1129 118 Z" fill="#04120f"/>
  <rect x="58" y="1246" width="86" height="86" rx="13" fill="#04120f"/>
  <rect x="80" y="1268" width="42" height="42" rx="8" fill="#f6f3e8"/>
  <path d="M101 1270 L123 1289 L101 1310 L79 1289 Z" fill="#04120f"/>
  <rect x="1106" y="1246" width="86" height="86" rx="13" fill="#04120f"/>
  <rect x="1128" y="1268" width="42" height="42" rx="8" fill="#f6f3e8"/>
  <g stroke="#04120f" stroke-width="7">
    <path d="M1129 1310 L1169 1270"/>
    <path d="M1136 1316 L1174 1278"/>
    <path d="M1124 1300 L1158 1266"/>
  </g>

  <g id="entry-qr" transform="translate(940 166) scale(0.45945946)" shape-rendering="crispEdges">
  <rect width="370" height="370" fill="#f6f3e8"/>
  <path fill="#04120f" d="M40.00 40.00h10.00v10.00h-10.00z M50.00 40.00h10.00v10.00h-10.00z M60.00 40.00h10.00v10.00h-10.00z M70.00 40.00h10.00v10.00h-10.00z M80.00 40.00h10.00v10.00h-10.00z M90.00 40.00h10.00v10.00h-10.00z M100.00 40.00h10.00v10.00h-10.00z M120.00 40.00h10.00v10.00h-10.00z M180.00 40.00h10.00v10.00h-10.00z M200.00 40.00h10.00v10.00h-10.00z M210.00 40.00h10.00v10.00h-10.00z M220.00 40.00h10.00v10.00h-10.00z M260.00 40.00h10.00v10.00h-10.00z M270.00 40.00h10.00v10.00h-10.00z M280.00 40.00h10.00v10.00h-10.00z M290.00 40.00h10.00v10.00h-10.00z M300.00 40.00h10.00v10.00h-10.00z M310.00 40.00h10.00v10.00h-10.00z M320.00 40.00h10.00v10.00h-10.00z M40.00 50.00h10.00v10.00h-10.00z M100.00 50.00h10.00v10.00h-10.00z M120.00 50.00h10.00v10.00h-10.00z M130.00 50.00h10.00v10.00h-10.00z M140.00 50.00h10.00v10.00h-10.00z M160.00 50.00h10.00v10.00h-10.00z M200.00 50.00h10.00v10.00h-10.00z M220.00 50.00h10.00v10.00h-10.00z M260.00 50.00h10.00v10.00h-10.00z M320.00 50.00h10.00v10.00h-10.00z M40.00 60.00h10.00v10.00h-10.00z M60.00 60.00h10.00v10.00h-10.00z M70.00 60.00h10.00v10.00h-10.00z M80.00 60.00h10.00v10.00h-10.00z M100.00 60.00h10.00v10.00h-10.00z M120.00 60.00h10.00v10.00h-10.00z M130.00 60.00h10.00v10.00h-10.00z M140.00 60.00h10.00v10.00h-10.00z M150.00 60.00h10.00v10.00h-10.00z M180.00 60.00h10.00v10.00h-10.00z M220.00 60.00h10.00v10.00h-10.00z M260.00 60.00h10.00v10.00h-10.00z M280.00 60.00h10.00v10.00h-10.00z M290.00 60.00h10.00v10.00h-10.00z M300.00 60.00h10.00v10.00h-10.00z M320.00 60.00h10.00v10.00h-10.00z M40.00 70.00h10.00v10.00h-10.00z M60.00 70.00h10.00v10.00h-10.00z M70.00 70.00h10.00v10.00h-10.00z M80.00 70.00h10.00v10.00h-10.00z M100.00 70.00h10.00v10.00h-10.00z M130.00 70.00h10.00v10.00h-10.00z M160.00 70.00h10.00v10.00h-10.00z M200.00 70.00h10.00v10.00h-10.00z M210.00 70.00h10.00v10.00h-10.00z M220.00 70.00h10.00v10.00h-10.00z M240.00 70.00h10.00v10.00h-10.00z M260.00 70.00h10.00v10.00h-10.00z M280.00 70.00h10.00v10.00h-10.00z M290.00 70.00h10.00v10.00h-10.00z M300.00 70.00h10.00v10.00h-10.00z M320.00 70.00h10.00v10.00h-10.00z M40.00 80.00h10.00v10.00h-10.00z M60.00 80.00h10.00v10.00h-10.00z M70.00 80.00h10.00v10.00h-10.00z M80.00 80.00h10.00v10.00h-10.00z M100.00 80.00h10.00v10.00h-10.00z M120.00 80.00h10.00v10.00h-10.00z M130.00 80.00h10.00v10.00h-10.00z M140.00 80.00h10.00v10.00h-10.00z M150.00 80.00h10.00v10.00h-10.00z M170.00 80.00h10.00v10.00h-10.00z M190.00 80.00h10.00v10.00h-10.00z M200.00 80.00h10.00v10.00h-10.00z M210.00 80.00h10.00v10.00h-10.00z M260.00 80.00h10.00v10.00h-10.00z M280.00 80.00h10.00v10.00h-10.00z M290.00 80.00h10.00v10.00h-10.00z M300.00 80.00h10.00v10.00h-10.00z M320.00 80.00h10.00v10.00h-10.00z M40.00 90.00h10.00v10.00h-10.00z M100.00 90.00h10.00v10.00h-10.00z M120.00 90.00h10.00v10.00h-10.00z M130.00 90.00h10.00v10.00h-10.00z M160.00 90.00h10.00v10.00h-10.00z M170.00 90.00h10.00v10.00h-10.00z M180.00 90.00h10.00v10.00h-10.00z M190.00 90.00h10.00v10.00h-10.00z M210.00 90.00h10.00v10.00h-10.00z M220.00 90.00h10.00v10.00h-10.00z M260.00 90.00h10.00v10.00h-10.00z M320.00 90.00h10.00v10.00h-10.00z M40.00 100.00h10.00v10.00h-10.00z M50.00 100.00h10.00v10.00h-10.00z M60.00 100.00h10.00v10.00h-10.00z M70.00 100.00h10.00v10.00h-10.00z M80.00 100.00h10.00v10.00h-10.00z M90.00 100.00h10.00v10.00h-10.00z M100.00 100.00h10.00v10.00h-10.00z M120.00 100.00h10.00v10.00h-10.00z M140.00 100.00h10.00v10.00h-10.00z M160.00 100.00h10.00v10.00h-10.00z M180.00 100.00h10.00v10.00h-10.00z M200.00 100.00h10.00v10.00h-10.00z M220.00 100.00h10.00v10.00h-10.00z M240.00 100.00h10.00v10.00h-10.00z M260.00 100.00h10.00v10.00h-10.00z M270.00 100.00h10.00v10.00h-10.00z M280.00 100.00h10.00v10.00h-10.00z M290.00 100.00h10.00v10.00h-10.00z M300.00 100.00h10.00v10.00h-10.00z M310.00 100.00h10.00v10.00h-10.00z M320.00 100.00h10.00v10.00h-10.00z M120.00 110.00h10.00v10.00h-10.00z M140.00 110.00h10.00v10.00h-10.00z M150.00 110.00h10.00v10.00h-10.00z M180.00 110.00h10.00v10.00h-10.00z M60.00 120.00h10.00v10.00h-10.00z M100.00 120.00h10.00v10.00h-10.00z M110.00 120.00h10.00v10.00h-10.00z M120.00 120.00h10.00v10.00h-10.00z M130.00 120.00h10.00v10.00h-10.00z M150.00 120.00h10.00v10.00h-10.00z M160.00 120.00h10.00v10.00h-10.00z M180.00 120.00h10.00v10.00h-10.00z M200.00 120.00h10.00v10.00h-10.00z M250.00 120.00h10.00v10.00h-10.00z M260.00 120.00h10.00v10.00h-10.00z M270.00 120.00h10.00v10.00h-10.00z M280.00 120.00h10.00v10.00h-10.00z M300.00 120.00h10.00v10.00h-10.00z M310.00 120.00h10.00v10.00h-10.00z M320.00 120.00h10.00v10.00h-10.00z M40.00 130.00h10.00v10.00h-10.00z M60.00 130.00h10.00v10.00h-10.00z M120.00 130.00h10.00v10.00h-10.00z M150.00 130.00h10.00v10.00h-10.00z M170.00 130.00h10.00v10.00h-10.00z M190.00 130.00h10.00v10.00h-10.00z M210.00 130.00h10.00v10.00h-10.00z M230.00 130.00h10.00v10.00h-10.00z M240.00 130.00h10.00v10.00h-10.00z M290.00 130.00h10.00v10.00h-10.00z M320.00 130.00h10.00v10.00h-10.00z M40.00 140.00h10.00v10.00h-10.00z M50.00 140.00h10.00v10.00h-10.00z M60.00 140.00h10.00v10.00h-10.00z M80.00 140.00h10.00v10.00h-10.00z M100.00 140.00h10.00v10.00h-10.00z M110.00 140.00h10.00v10.00h-10.00z M120.00 140.00h10.00v10.00h-10.00z M140.00 140.00h10.00v10.00h-10.00z M160.00 140.00h10.00v10.00h-10.00z M170.00 140.00h10.00v10.00h-10.00z M180.00 140.00h10.00v10.00h-10.00z M190.00 140.00h10.00v10.00h-10.00z M210.00 140.00h10.00v10.00h-10.00z M230.00 140.00h10.00v10.00h-10.00z M240.00 140.00h10.00v10.00h-10.00z M260.00 140.00h10.00v10.00h-10.00z M280.00 140.00h10.00v10.00h-10.00z M300.00 140.00h10.00v10.00h-10.00z M310.00 140.00h10.00v10.00h-10.00z M320.00 140.00h10.00v10.00h-10.00z M60.00 150.00h10.00v10.00h-10.00z M70.00 150.00h10.00v10.00h-10.00z M80.00 150.00h10.00v10.00h-10.00z M110.00 150.00h10.00v10.00h-10.00z M130.00 150.00h10.00v10.00h-10.00z M160.00 150.00h10.00v10.00h-10.00z M170.00 150.00h10.00v10.00h-10.00z M190.00 150.00h10.00v10.00h-10.00z M200.00 150.00h10.00v10.00h-10.00z M240.00 150.00h10.00v10.00h-10.00z M250.00 150.00h10.00v10.00h-10.00z M260.00 150.00h10.00v10.00h-10.00z M310.00 150.00h10.00v10.00h-10.00z M50.00 160.00h10.00v10.00h-10.00z M70.00 160.00h10.00v10.00h-10.00z M90.00 160.00h10.00v10.00h-10.00z M100.00 160.00h10.00v10.00h-10.00z M110.00 160.00h10.00v10.00h-10.00z M120.00 160.00h10.00v10.00h-10.00z M130.00 160.00h10.00v10.00h-10.00z M160.00 160.00h10.00v10.00h-10.00z M170.00 160.00h10.00v10.00h-10.00z M180.00 160.00h10.00v10.00h-10.00z M190.00 160.00h10.00v10.00h-10.00z M250.00 160.00h10.00v10.00h-10.00z M290.00 160.00h10.00v10.00h-10.00z M310.00 160.00h10.00v10.00h-10.00z M320.00 160.00h10.00v10.00h-10.00z M70.00 170.00h10.00v10.00h-10.00z M120.00 170.00h10.00v10.00h-10.00z M160.00 170.00h10.00v10.00h-10.00z M180.00 170.00h10.00v10.00h-10.00z M190.00 170.00h10.00v10.00h-10.00z M220.00 170.00h10.00v10.00h-10.00z M230.00 170.00h10.00v10.00h-10.00z M240.00 170.00h10.00v10.00h-10.00z M250.00 170.00h10.00v10.00h-10.00z M290.00 170.00h10.00v10.00h-10.00z M320.00 170.00h10.00v10.00h-10.00z M50.00 180.00h10.00v10.00h-10.00z M60.00 180.00h10.00v10.00h-10.00z M100.00 180.00h10.00v10.00h-10.00z M150.00 180.00h10.00v10.00h-10.00z M160.00 180.00h10.00v10.00h-10.00z M200.00 180.00h10.00v10.00h-10.00z M210.00 180.00h10.00v10.00h-10.00z M230.00 180.00h10.00v10.00h-10.00z M240.00 180.00h10.00v10.00h-10.00z M260.00 180.00h10.00v10.00h-10.00z M290.00 180.00h10.00v10.00h-10.00z M310.00 180.00h10.00v10.00h-10.00z M320.00 180.00h10.00v10.00h-10.00z M50.00 190.00h10.00v10.00h-10.00z M60.00 190.00h10.00v10.00h-10.00z M70.00 190.00h10.00v10.00h-10.00z M80.00 190.00h10.00v10.00h-10.00z M90.00 190.00h10.00v10.00h-10.00z M120.00 190.00h10.00v10.00h-10.00z M140.00 190.00h10.00v10.00h-10.00z M180.00 190.00h10.00v10.00h-10.00z M190.00 190.00h10.00v10.00h-10.00z M230.00 190.00h10.00v10.00h-10.00z M240.00 190.00h10.00v10.00h-10.00z M250.00 190.00h10.00v10.00h-10.00z M260.00 190.00h10.00v10.00h-10.00z M280.00 190.00h10.00v10.00h-10.00z M290.00 190.00h10.00v10.00h-10.00z M310.00 190.00h10.00v10.00h-10.00z M40.00 200.00h10.00v10.00h-10.00z M50.00 200.00h10.00v10.00h-10.00z M90.00 200.00h10.00v10.00h-10.00z M100.00 200.00h10.00v10.00h-10.00z M140.00 200.00h10.00v10.00h-10.00z M160.00 200.00h10.00v10.00h-10.00z M180.00 200.00h10.00v10.00h-10.00z M230.00 200.00h10.00v10.00h-10.00z M250.00 200.00h10.00v10.00h-10.00z M290.00 200.00h10.00v10.00h-10.00z M310.00 200.00h10.00v10.00h-10.00z M320.00 200.00h10.00v10.00h-10.00z M50.00 210.00h10.00v10.00h-10.00z M70.00 210.00h10.00v10.00h-10.00z M80.00 210.00h10.00v10.00h-10.00z M110.00 210.00h10.00v10.00h-10.00z M130.00 210.00h10.00v10.00h-10.00z M160.00 210.00h10.00v10.00h-10.00z M170.00 210.00h10.00v10.00h-10.00z M190.00 210.00h10.00v10.00h-10.00z M200.00 210.00h10.00v10.00h-10.00z M220.00 210.00h10.00v10.00h-10.00z M230.00 210.00h10.00v10.00h-10.00z M240.00 210.00h10.00v10.00h-10.00z M270.00 210.00h10.00v10.00h-10.00z M290.00 210.00h10.00v10.00h-10.00z M300.00 210.00h10.00v10.00h-10.00z M320.00 210.00h10.00v10.00h-10.00z M40.00 220.00h10.00v10.00h-10.00z M60.00 220.00h10.00v10.00h-10.00z M70.00 220.00h10.00v10.00h-10.00z M80.00 220.00h10.00v10.00h-10.00z M100.00 220.00h10.00v10.00h-10.00z M130.00 220.00h10.00v10.00h-10.00z M140.00 220.00h10.00v10.00h-10.00z M170.00 220.00h10.00v10.00h-10.00z M180.00 220.00h10.00v10.00h-10.00z M190.00 220.00h10.00v10.00h-10.00z M200.00 220.00h10.00v10.00h-10.00z M210.00 220.00h10.00v10.00h-10.00z M220.00 220.00h10.00v10.00h-10.00z M230.00 220.00h10.00v10.00h-10.00z M240.00 220.00h10.00v10.00h-10.00z M250.00 220.00h10.00v10.00h-10.00z M310.00 220.00h10.00v10.00h-10.00z M320.00 220.00h10.00v10.00h-10.00z M50.00 230.00h10.00v10.00h-10.00z M60.00 230.00h10.00v10.00h-10.00z M70.00 230.00h10.00v10.00h-10.00z M80.00 230.00h10.00v10.00h-10.00z M90.00 230.00h10.00v10.00h-10.00z M120.00 230.00h10.00v10.00h-10.00z M150.00 230.00h10.00v10.00h-10.00z M170.00 230.00h10.00v10.00h-10.00z M190.00 230.00h10.00v10.00h-10.00z M210.00 230.00h10.00v10.00h-10.00z M250.00 230.00h10.00v10.00h-10.00z M270.00 230.00h10.00v10.00h-10.00z M290.00 230.00h10.00v10.00h-10.00z M310.00 230.00h10.00v10.00h-10.00z M40.00 240.00h10.00v10.00h-10.00z M60.00 240.00h10.00v10.00h-10.00z M70.00 240.00h10.00v10.00h-10.00z M80.00 240.00h10.00v10.00h-10.00z M100.00 240.00h10.00v10.00h-10.00z M110.00 240.00h10.00v10.00h-10.00z M120.00 240.00h10.00v10.00h-10.00z M140.00 240.00h10.00v10.00h-10.00z M150.00 240.00h10.00v10.00h-10.00z M170.00 240.00h10.00v10.00h-10.00z M180.00 240.00h10.00v10.00h-10.00z M190.00 240.00h10.00v10.00h-10.00z M200.00 240.00h10.00v10.00h-10.00z M240.00 240.00h10.00v10.00h-10.00z M250.00 240.00h10.00v10.00h-10.00z M260.00 240.00h10.00v10.00h-10.00z M270.00 240.00h10.00v10.00h-10.00z M280.00 240.00h10.00v10.00h-10.00z M120.00 250.00h10.00v10.00h-10.00z M130.00 250.00h10.00v10.00h-10.00z M150.00 250.00h10.00v10.00h-10.00z M180.00 250.00h10.00v10.00h-10.00z M200.00 250.00h10.00v10.00h-10.00z M220.00 250.00h10.00v10.00h-10.00z M230.00 250.00h10.00v10.00h-10.00z M240.00 250.00h10.00v10.00h-10.00z M280.00 250.00h10.00v10.00h-10.00z M300.00 250.00h10.00v10.00h-10.00z M310.00 250.00h10.00v10.00h-10.00z M320.00 250.00h10.00v10.00h-10.00z M40.00 260.00h10.00v10.00h-10.00z M50.00 260.00h10.00v10.00h-10.00z M60.00 260.00h10.00v10.00h-10.00z M70.00 260.00h10.00v10.00h-10.00z M80.00 260.00h10.00v10.00h-10.00z M90.00 260.00h10.00v10.00h-10.00z M100.00 260.00h10.00v10.00h-10.00z M120.00 260.00h10.00v10.00h-10.00z M130.00 260.00h10.00v10.00h-10.00z M150.00 260.00h10.00v10.00h-10.00z M160.00 260.00h10.00v10.00h-10.00z M190.00 260.00h10.00v10.00h-10.00z M200.00 260.00h10.00v10.00h-10.00z M210.00 260.00h10.00v10.00h-10.00z M240.00 260.00h10.00v10.00h-10.00z M260.00 260.00h10.00v10.00h-10.00z M280.00 260.00h10.00v10.00h-10.00z M290.00 260.00h10.00v10.00h-10.00z M310.00 260.00h10.00v10.00h-10.00z M320.00 260.00h10.00v10.00h-10.00z M40.00 270.00h10.00v10.00h-10.00z M100.00 270.00h10.00v10.00h-10.00z M130.00 270.00h10.00v10.00h-10.00z M140.00 270.00h10.00v10.00h-10.00z M150.00 270.00h10.00v10.00h-10.00z M180.00 270.00h10.00v10.00h-10.00z M190.00 270.00h10.00v10.00h-10.00z M200.00 270.00h10.00v10.00h-10.00z M240.00 270.00h10.00v10.00h-10.00z M280.00 270.00h10.00v10.00h-10.00z M290.00 270.00h10.00v10.00h-10.00z M40.00 280.00h10.00v10.00h-10.00z M60.00 280.00h10.00v10.00h-10.00z M70.00 280.00h10.00v10.00h-10.00z M80.00 280.00h10.00v10.00h-10.00z M100.00 280.00h10.00v10.00h-10.00z M130.00 280.00h10.00v10.00h-10.00z M180.00 280.00h10.00v10.00h-10.00z M190.00 280.00h10.00v10.00h-10.00z M210.00 280.00h10.00v10.00h-10.00z M230.00 280.00h10.00v10.00h-10.00z M240.00 280.00h10.00v10.00h-10.00z M250.00 280.00h10.00v10.00h-10.00z M260.00 280.00h10.00v10.00h-10.00z M270.00 280.00h10.00v10.00h-10.00z M280.00 280.00h10.00v10.00h-10.00z M320.00 280.00h10.00v10.00h-10.00z M40.00 290.00h10.00v10.00h-10.00z M60.00 290.00h10.00v10.00h-10.00z M70.00 290.00h10.00v10.00h-10.00z M80.00 290.00h10.00v10.00h-10.00z M100.00 290.00h10.00v10.00h-10.00z M130.00 290.00h10.00v10.00h-10.00z M150.00 290.00h10.00v10.00h-10.00z M160.00 290.00h10.00v10.00h-10.00z M170.00 290.00h10.00v10.00h-10.00z M190.00 290.00h10.00v10.00h-10.00z M200.00 290.00h10.00v10.00h-10.00z M210.00 290.00h10.00v10.00h-10.00z M230.00 290.00h10.00v10.00h-10.00z M240.00 290.00h10.00v10.00h-10.00z M260.00 290.00h10.00v10.00h-10.00z M280.00 290.00h10.00v10.00h-10.00z M300.00 290.00h10.00v10.00h-10.00z M310.00 290.00h10.00v10.00h-10.00z M320.00 290.00h10.00v10.00h-10.00z M40.00 300.00h10.00v10.00h-10.00z M60.00 300.00h10.00v10.00h-10.00z M70.00 300.00h10.00v10.00h-10.00z M80.00 300.00h10.00v10.00h-10.00z M100.00 300.00h10.00v10.00h-10.00z M120.00 300.00h10.00v10.00h-10.00z M130.00 300.00h10.00v10.00h-10.00z M140.00 300.00h10.00v10.00h-10.00z M160.00 300.00h10.00v10.00h-10.00z M190.00 300.00h10.00v10.00h-10.00z M200.00 300.00h10.00v10.00h-10.00z M210.00 300.00h10.00v10.00h-10.00z M240.00 300.00h10.00v10.00h-10.00z M260.00 300.00h10.00v10.00h-10.00z M270.00 300.00h10.00v10.00h-10.00z M280.00 300.00h10.00v10.00h-10.00z M290.00 300.00h10.00v10.00h-10.00z M320.00 300.00h10.00v10.00h-10.00z M40.00 310.00h10.00v10.00h-10.00z M100.00 310.00h10.00v10.00h-10.00z M130.00 310.00h10.00v10.00h-10.00z M170.00 310.00h10.00v10.00h-10.00z M250.00 310.00h10.00v10.00h-10.00z M260.00 310.00h10.00v10.00h-10.00z M310.00 310.00h10.00v10.00h-10.00z M40.00 320.00h10.00v10.00h-10.00z M50.00 320.00h10.00v10.00h-10.00z M60.00 320.00h10.00v10.00h-10.00z M70.00 320.00h10.00v10.00h-10.00z M80.00 320.00h10.00v10.00h-10.00z M90.00 320.00h10.00v10.00h-10.00z M100.00 320.00h10.00v10.00h-10.00z M150.00 320.00h10.00v10.00h-10.00z M160.00 320.00h10.00v10.00h-10.00z M170.00 320.00h10.00v10.00h-10.00z M180.00 320.00h10.00v10.00h-10.00z M210.00 320.00h10.00v10.00h-10.00z M230.00 320.00h10.00v10.00h-10.00z M260.00 320.00h10.00v10.00h-10.00z M280.00 320.00h10.00v10.00h-10.00z M310.00 320.00h10.00v10.00h-10.00z M320.00 320.00h10.00v10.00h-10.00z"/>
</g>
  <rect x="940" y="352" width="170" height="52" rx="12" fill="#04120f"/>
  <text x="1025" y="386" text-anchor="middle" font-family="Arial, PingFang SC, Microsoft YaHei, sans-serif" font-size="25" font-weight="850" fill="#f6f3e8">进入演示</text>

  <g opacity="0.88">
    <circle cx="180" cy="218" r="16" fill="#39e59f"/>
    <circle cx="1080" cy="462" r="16" fill="#836bff"/>
    <circle cx="180" cy="1178" r="16" fill="#ffb33d"/>
    <circle cx="1080" cy="1178" r="16" fill="#35a9ff"/>
    <path d="M168 246 H310 M940 462 H1082 M168 1148 H310 M940 1148 H1082" stroke="#04120f" stroke-width="5" stroke-linecap="round"/>
  </g>

  <g opacity="0.95" fill="#04120f">
    <rect x="116" y="336" width="38" height="150" rx="6"/>
    <rect x="116" y="536" width="38" height="86" rx="6"/>
    <rect x="116" y="676" width="38" height="188" rx="6"/>
    <rect x="1096" y="532" width="38" height="104" rx="6"/>
    <rect x="1096" y="700" width="38" height="178" rx="6"/>
    <rect x="1096" y="946" width="38" height="116" rx="6"/>
    <path d="M196 1010 L300 1010 L300 1046 L236 1046 L236 1082 L196 1082 Z"/>
    <path d="M1054 994 L950 1050 L1054 1106 Z"/>
    <rect x="230" y="760" width="790" height="20" rx="10" opacity="0.35"/>
    <rect x="278" y="830" width="694" height="16" rx="8" opacity="0.28"/>
    <rect x="360" y="1118" width="530" height="20" rx="10" opacity="0.38"/>
  </g>

  <text x="625" y="252" text-anchor="middle" font-family="Arial, PingFang SC, Microsoft YaHei, sans-serif" font-size="92" font-weight="850" letter-spacing="0" fill="#04120f">增强现实乐器</text>
  <text x="625" y="378" text-anchor="middle" font-family="Arial, PingFang SC, Microsoft YaHei, sans-serif" font-size="132" font-weight="900" letter-spacing="0" fill="#04120f">合成器</text>
  <text x="625" y="502" text-anchor="middle" font-family="Arial, Helvetica, sans-serif" font-size="76" font-weight="760" letter-spacing="0" fill="#244a55">synthesizer</text>

  <g id="non-qr-data-signature" fill="#04120f" opacity="0.92">
    <rect x="298.0" y="570" width="17.7" height="32" rx="4"/>
    <rect x="353.3" y="570" width="17.7" height="32" rx="4"/>
    <rect x="381.0" y="570" width="17.7" height="32" rx="4"/>
    <rect x="436.3" y="570" width="17.7" height="32" rx="4"/>
    <rect x="519.3" y="570" width="17.7" height="32" rx="4"/>
    <rect x="547.0" y="570" width="17.7" height="32" rx="4"/>
    <rect x="574.6" y="570" width="17.7" height="32" rx="4"/>
    <rect x="657.6" y="570" width="17.7" height="32" rx="4"/>
    <rect x="713.0" y="570" width="17.7" height="32" rx="4"/>
    <rect x="740.6" y="570" width="17.7" height="32" rx="4"/>
    <rect x="796.0" y="570" width="17.7" height="32" rx="4"/>
    <rect x="879.0" y="570" width="17.7" height="32" rx="4"/>
    <rect x="906.6" y="570" width="17.7" height="32" rx="4"/>
    <rect x="934.3" y="570" width="17.7" height="32" rx="4"/>
  </g>

  <text x="625" y="1204" text-anchor="middle" font-family="Arial, Helvetica, sans-serif" font-size="34" font-weight="850" letter-spacing="0" fill="#244a55">Secure AR Demo</text>
</svg>
