<?xml version="1.0" encoding="UTF-8"?>
<svg xmlns="http://www.w3.org/2000/svg" width="1250" height="1390" viewBox="0 0 1250 1390">
  <rect width="1250" height="1390" fill="#ffffff"/>
  <rect x="36" y="36" width="1178" height="1318" rx="42" fill="#ffffff" stroke="#020908" stroke-width="24"/>
  <rect x="66" y="66" width="1118" height="1258" rx="20" fill="none" stroke="#020908" stroke-width="7"/>
  <rect x="92" y="92" width="1066" height="1206" rx="16" fill="none" stroke="#020908" stroke-width="3" stroke-dasharray="34 16" opacity="0.42"/>

  <rect x="38" y="38" width="128" height="128" rx="18" fill="#020908"/>
  <rect x="76" y="76" width="52" height="52" rx="9" fill="#ffffff"/>
  <circle cx="102" cy="102" r="17" fill="#020908"/>
  <rect x="1084" y="38" width="128" height="128" rx="18" fill="#020908"/>
  <rect x="1122" y="76" width="52" height="52" rx="9" fill="#ffffff"/>
  <path d="M1148 75 L1180 130 L1116 130 Z" fill="#020908"/>
  <rect x="38" y="1226" width="128" height="128" rx="18" fill="#020908"/>
  <rect x="76" y="1264" width="52" height="52" rx="9" fill="#ffffff"/>
  <path d="M102 1264 L134 1290 L102 1317 L70 1290 Z" fill="#020908"/>
  <rect x="1084" y="1226" width="128" height="128" rx="18" fill="#020908"/>
  <rect x="1122" y="1264" width="52" height="52" rx="9" fill="#ffffff"/>
  <g stroke="#020908" stroke-width="9" stroke-linecap="round">
    <path d="M1128 1310 L1169 1269"/>
    <path d="M1138 1317 L1177 1278"/>
    <path d="M1123 1300 L1158 1265"/>
  </g>

  <g opacity="0.96" fill="#020908">
    <rect x="150" y="224" width="120" height="22" rx="11"/>
    <rect x="968" y="224" width="132" height="22" rx="11"/>
    <circle cx="210" cy="724" r="18" fill="#39e59f"/>
    <circle cx="1034" cy="774" r="18" fill="#836bff"/>
    <circle cx="278" cy="1138" r="14" fill="#ffb33d"/>
    <circle cx="982" cy="1116" r="14" fill="#35a9ff"/>
  </g>

  <text x="625" y="245" text-anchor="middle" font-family="Arial, PingFang SC, Microsoft YaHei, sans-serif" font-size="96" font-weight="900" letter-spacing="0" fill="#020908">增强现实乐器</text>
  <text x="625" y="396" text-anchor="middle" font-family="Arial, PingFang SC, Microsoft YaHei, sans-serif" font-size="148" font-weight="900" letter-spacing="0" fill="#020908">合成器</text>
  <text x="625" y="518" text-anchor="middle" font-family="Arial, Helvetica, sans-serif" font-size="88" font-weight="900" letter-spacing="0" fill="#020908">synthesizer</text>

  <g id="non-qr-data-signature" fill="#020908" opacity="1">
    <rect x="298.0" y="580.0" width="20.8" height="52.0" rx="3"/>
    <rect x="353.3" y="580.0" width="20.8" height="52.0" rx="3"/>
    <rect x="381.0" y="580.0" width="20.8" height="52.0" rx="3"/>
    <rect x="436.3" y="580.0" width="20.8" height="52.0" rx="3"/>
    <rect x="519.3" y="580.0" width="20.8" height="52.0" rx="3"/>
    <rect x="547.0" y="580.0" width="20.8" height="52.0" rx="3"/>
    <rect x="574.6" y="580.0" width="20.8" height="52.0" rx="3"/>
    <rect x="657.6" y="580.0" width="20.8" height="52.0" rx="3"/>
    <rect x="713.0" y="580.0" width="20.8" height="52.0" rx="3"/>
    <rect x="740.6" y="580.0" width="20.8" height="52.0" rx="3"/>
    <rect x="796.0" y="580.0" width="20.8" height="52.0" rx="3"/>
    <rect x="879.0" y="580.0" width="20.8" height="52.0" rx="3"/>
    <rect x="906.6" y="580.0" width="20.8" height="52.0" rx="3"/>
    <rect x="934.3" y="580.0" width="20.8" height="52.0" rx="3"/>
  </g>

  <g id="synth-panel-target" fill="none" stroke="#020908" stroke-linecap="round" stroke-linejoin="round">
    <rect x="172" y="674" width="906" height="434" rx="32" stroke-width="12"/>
    <rect x="206" y="712" width="838" height="360" rx="18" stroke-width="5"/>
    <path d="M244 790 H474 M244 852 H474 M244 914 H474" stroke-width="9"/>
    <path d="M252 790 C278 724 314 868 340 790 S402 724 428 790 S468 868 488 790" stroke-width="8"/>
    <path d="M252 914 C290 914 288 856 330 856 C372 856 368 952 414 952 C454 952 462 890 498 890" stroke-width="7"/>
    <circle cx="284" cy="736" r="31" stroke-width="9"/>
    <path d="M284 736 L304 714" stroke-width="9"/>
    <circle cx="386" cy="736" r="43" stroke-width="9"/>
    <path d="M386 736 L360 708" stroke-width="9"/>
    <circle cx="490" cy="742" r="22" stroke-width="8"/>
    <path d="M532 724 V986 M584 724 V986 M636 724 V986 M688 724 V986 M740 724 V986 M792 724 V986" stroke-width="8"/>
    <g fill="#020908" stroke="none">
      <rect x="516" y="846" width="32" height="42" rx="7"/>
      <rect x="568" y="782" width="32" height="42" rx="7"/>
      <rect x="620" y="918" width="32" height="42" rx="7"/>
      <rect x="672" y="816" width="32" height="42" rx="7"/>
      <rect x="724" y="760" width="32" height="42" rx="7"/>
      <rect x="776" y="874" width="32" height="42" rx="7"/>
    </g>
    <path d="M836 748 H992 M836 812 H940 M836 876 H1010 M836 940 H966" stroke-width="9"/>
    <path d="M858 1020 H1010" stroke-width="8"/>
    <circle cx="854" cy="748" r="17" stroke-width="7"/>
    <circle cx="982" cy="812" r="17" stroke-width="7"/>
    <circle cx="858" cy="876" r="17" stroke-width="7"/>
    <circle cx="1008" cy="940" r="17" stroke-width="7"/>
    <path d="M854 748 C802 706 764 700 724 760" stroke-width="7"/>
    <path d="M982 812 C936 786 900 784 858 876" stroke-width="7"/>
    <path d="M858 876 C820 962 730 994 636 918" stroke-width="7"/>
    <path d="M1008 940 C950 1012 870 1018 792 874" stroke-width="7"/>
    <rect x="246" y="1004" width="536" height="48" rx="9" stroke-width="6"/>
    <g fill="#020908" stroke="none">
      <rect x="292" y="1004" width="28" height="31"/>
      <rect x="374" y="1004" width="28" height="31"/>
      <rect x="432" y="1004" width="28" height="31"/>
      <rect x="572" y="1004" width="28" height="31"/>
      <rect x="632" y="1004" width="28" height="31"/>
      <rect x="690" y="1004" width="28" height="31"/>
    </g>
    <path d="M246 1028 H782" stroke-width="4" opacity="0.65"/>
    <path d="M238 688 L318 688 M990 1092 L1062 1092 M178 1094 L246 1026" stroke-width="10"/>
  </g>
  <g id="panel-leds" fill="#020908">
    <circle cx="230" cy="706" r="9"/>
    <circle cx="1018" cy="730" r="9"/>
    <circle cx="822" cy="1020" r="9"/>
    <rect x="876" y="1006" width="110" height="30" rx="15"/>
  </g>
  <text x="625" y="1162" text-anchor="middle" font-family="Arial, Helvetica, sans-serif" font-size="40" font-weight="900" letter-spacing="0" fill="#020908">SYN-001 · IMAGE TARGET</text>
  <text x="625" y="1204" text-anchor="middle" font-family="Arial, Helvetica, sans-serif" font-size="34" font-weight="850" letter-spacing="0" fill="#244a55">Secure AR Access</text>
</svg>
