<?xml version="1.0" encoding="UTF-8"?>
<svg xmlns="http://www.w3.org/2000/svg" width="1250" height="1390" viewBox="0 0 1250 1390">
  <rect width="1250" height="1390" fill="#f6f3e8"/>
  <rect x="38" y="38" width="1174" height="1314" rx="42" fill="#f6f3e8" stroke="#04120f" stroke-width="22"/>
  <rect x="66" y="66" width="1118" height="1258" rx="20" fill="none" stroke="#35d6a4" stroke-width="5"/>
  <rect x="88" y="88" width="1074" height="1214" rx="18" fill="none" stroke="#04120f" stroke-width="2" stroke-dasharray="22 18" opacity="0.32"/>

  <rect x="58" y="58" width="86" height="86" rx="13" fill="#04120f"/>
  <rect x="80" y="80" width="42" height="42" rx="8" fill="#f6f3e8"/>
  <circle cx="101" cy="101" r="13" fill="#04120f"/>
  <rect x="1106" y="58" width="86" height="86" rx="13" fill="#04120f"/>
  <rect x="1128" y="80" width="42" height="42" rx="8" fill="#f6f3e8"/>
  <path d="M1149 84 L1169 118 L1129 118 Z" fill="#04120f"/>
  <rect x="58" y="1246" width="86" height="86" rx="13" fill="#04120f"/>
  <rect x="80" y="1268" width="42" height="42" rx="8" fill="#f6f3e8"/>
  <path d="M101 1270 L123 1289 L101 1310 L79 1289 Z" fill="#04120f"/>
  <rect x="1106" y="1246" width="86" height="86" rx="13" fill="#04120f"/>
  <rect x="1128" y="1268" width="42" height="42" rx="8" fill="#f6f3e8"/>
  <g stroke="#04120f" stroke-width="7">
    <path d="M1129 1310 L1169 1270"/>
    <path d="M1136 1316 L1174 1278"/>
    <path d="M1124 1300 L1158 1266"/>
  </g>

  <g id="entry-qr" transform="translate(940 166) scale(0.45945946)" shape-rendering="crispEdges">
  <rect width="370" height="370" fill="#f6f3e8"/>
  <path fill="#04120f" d="M40.00 40.00h9.00v9.00h-9.00z M48.00 40.00h9.00v9.00h-9.00z M57.00 40.00h9.00v9.00h-9.00z M66.00 40.00h9.00v9.00h-9.00z M75.00 40.00h9.00v9.00h-9.00z M83.00 40.00h9.00v9.00h-9.00z M92.00 40.00h9.00v9.00h-9.00z M110.00 40.00h9.00v9.00h-9.00z M136.00 40.00h9.00v9.00h-9.00z M171.00 40.00h9.00v9.00h-9.00z M180.00 40.00h9.00v9.00h-9.00z M215.00 40.00h9.00v9.00h-9.00z M224.00 40.00h9.00v9.00h-9.00z M268.00 40.00h9.00v9.00h-9.00z M277.00 40.00h9.00v9.00h-9.00z M286.00 40.00h9.00v9.00h-9.00z M294.00 40.00h9.00v9.00h-9.00z M303.00 40.00h9.00v9.00h-9.00z M312.00 40.00h9.00v9.00h-9.00z M321.00 40.00h9.00v9.00h-9.00z M40.00 48.00h9.00v9.00h-9.00z M92.00 48.00h9.00v9.00h-9.00z M110.00 48.00h9.00v9.00h-9.00z M127.00 48.00h9.00v9.00h-9.00z M154.00 48.00h9.00v9.00h-9.00z M163.00 48.00h9.00v9.00h-9.00z M171.00 48.00h9.00v9.00h-9.00z M206.00 48.00h9.00v9.00h-9.00z M215.00 48.00h9.00v9.00h-9.00z M233.00 48.00h9.00v9.00h-9.00z M268.00 48.00h9.00v9.00h-9.00z M321.00 48.00h9.00v9.00h-9.00z M40.00 57.00h9.00v9.00h-9.00z M57.00 57.00h9.00v9.00h-9.00z M66.00 57.00h9.00v9.00h-9.00z M75.00 57.00h9.00v9.00h-9.00z M92.00 57.00h9.00v9.00h-9.00z M110.00 57.00h9.00v9.00h-9.00z M136.00 57.00h9.00v9.00h-9.00z M154.00 57.00h9.00v9.00h-9.00z M171.00 57.00h9.00v9.00h-9.00z M180.00 57.00h9.00v9.00h-9.00z M189.00 57.00h9.00v9.00h-9.00z M206.00 57.00h9.00v9.00h-9.00z M215.00 57.00h9.00v9.00h-9.00z M233.00 57.00h9.00v9.00h-9.00z M268.00 57.00h9.00v9.00h-9.00z M286.00 57.00h9.00v9.00h-9.00z M294.00 57.00h9.00v9.00h-9.00z M303.00 57.00h9.00v9.00h-9.00z M321.00 57.00h9.00v9.00h-9.00z M40.00 66.00h9.00v9.00h-9.00z M57.00 66.00h9.00v9.00h-9.00z M66.00 66.00h9.00v9.00h-9.00z M75.00 66.00h9.00v9.00h-9.00z M92.00 66.00h9.00v9.00h-9.00z M110.00 66.00h9.00v9.00h-9.00z M127.00 66.00h9.00v9.00h-9.00z M154.00 66.00h9.00v9.00h-9.00z M171.00 66.00h9.00v9.00h-9.00z M180.00 66.00h9.00v9.00h-9.00z M206.00 66.00h9.00v9.00h-9.00z M215.00 66.00h9.00v9.00h-9.00z M224.00 66.00h9.00v9.00h-9.00z M233.00 66.00h9.00v9.00h-9.00z M242.00 66.00h9.00v9.00h-9.00z M250.00 66.00h9.00v9.00h-9.00z M268.00 66.00h9.00v9.00h-9.00z M286.00 66.00h9.00v9.00h-9.00z M294.00 66.00h9.00v9.00h-9.00z M303.00 66.00h9.00v9.00h-9.00z M321.00 66.00h9.00v9.00h-9.00z M40.00 75.00h9.00v9.00h-9.00z M57.00 75.00h9.00v9.00h-9.00z M66.00 75.00h9.00v9.00h-9.00z M75.00 75.00h9.00v9.00h-9.00z M92.00 75.00h9.00v9.00h-9.00z M136.00 75.00h9.00v9.00h-9.00z M154.00 75.00h9.00v9.00h-9.00z M206.00 75.00h9.00v9.00h-9.00z M233.00 75.00h9.00v9.00h-9.00z M250.00 75.00h9.00v9.00h-9.00z M268.00 75.00h9.00v9.00h-9.00z M286.00 75.00h9.00v9.00h-9.00z M294.00 75.00h9.00v9.00h-9.00z M303.00 75.00h9.00v9.00h-9.00z M321.00 75.00h9.00v9.00h-9.00z M40.00 83.00h9.00v9.00h-9.00z M92.00 83.00h9.00v9.00h-9.00z M119.00 83.00h9.00v9.00h-9.00z M145.00 83.00h9.00v9.00h-9.00z M163.00 83.00h9.00v9.00h-9.00z M171.00 83.00h9.00v9.00h-9.00z M189.00 83.00h9.00v9.00h-9.00z M198.00 83.00h9.00v9.00h-9.00z M224.00 83.00h9.00v9.00h-9.00z M233.00 83.00h9.00v9.00h-9.00z M242.00 83.00h9.00v9.00h-9.00z M268.00 83.00h9.00v9.00h-9.00z M321.00 83.00h9.00v9.00h-9.00z M40.00 92.00h9.00v9.00h-9.00z M48.00 92.00h9.00v9.00h-9.00z M57.00 92.00h9.00v9.00h-9.00z M66.00 92.00h9.00v9.00h-9.00z M75.00 92.00h9.00v9.00h-9.00z M83.00 92.00h9.00v9.00h-9.00z M92.00 92.00h9.00v9.00h-9.00z M110.00 92.00h9.00v9.00h-9.00z M127.00 92.00h9.00v9.00h-9.00z M145.00 92.00h9.00v9.00h-9.00z M163.00 92.00h9.00v9.00h-9.00z M180.00 92.00h9.00v9.00h-9.00z M198.00 92.00h9.00v9.00h-9.00z M215.00 92.00h9.00v9.00h-9.00z M233.00 92.00h9.00v9.00h-9.00z M250.00 92.00h9.00v9.00h-9.00z M268.00 92.00h9.00v9.00h-9.00z M277.00 92.00h9.00v9.00h-9.00z M286.00 92.00h9.00v9.00h-9.00z M294.00 92.00h9.00v9.00h-9.00z M303.00 92.00h9.00v9.00h-9.00z M312.00 92.00h9.00v9.00h-9.00z M321.00 92.00h9.00v9.00h-9.00z M163.00 101.00h9.00v9.00h-9.00z M180.00 101.00h9.00v9.00h-9.00z M206.00 101.00h9.00v9.00h-9.00z M224.00 101.00h9.00v9.00h-9.00z M40.00 110.00h9.00v9.00h-9.00z M57.00 110.00h9.00v9.00h-9.00z M66.00 110.00h9.00v9.00h-9.00z M75.00 110.00h9.00v9.00h-9.00z M92.00 110.00h9.00v9.00h-9.00z M110.00 110.00h9.00v9.00h-9.00z M119.00 110.00h9.00v9.00h-9.00z M136.00 110.00h9.00v9.00h-9.00z M145.00 110.00h9.00v9.00h-9.00z M154.00 110.00h9.00v9.00h-9.00z M163.00 110.00h9.00v9.00h-9.00z M171.00 110.00h9.00v9.00h-9.00z M198.00 110.00h9.00v9.00h-9.00z M206.00 110.00h9.00v9.00h-9.00z M242.00 110.00h9.00v9.00h-9.00z M294.00 110.00h9.00v9.00h-9.00z M303.00 110.00h9.00v9.00h-9.00z M312.00 110.00h9.00v9.00h-9.00z M321.00 110.00h9.00v9.00h-9.00z M40.00 119.00h9.00v9.00h-9.00z M48.00 119.00h9.00v9.00h-9.00z M66.00 119.00h9.00v9.00h-9.00z M75.00 119.00h9.00v9.00h-9.00z M119.00 119.00h9.00v9.00h-9.00z M136.00 119.00h9.00v9.00h-9.00z M145.00 119.00h9.00v9.00h-9.00z M154.00 119.00h9.00v9.00h-9.00z M163.00 119.00h9.00v9.00h-9.00z M171.00 119.00h9.00v9.00h-9.00z M180.00 119.00h9.00v9.00h-9.00z M189.00 119.00h9.00v9.00h-9.00z M215.00 119.00h9.00v9.00h-9.00z M233.00 119.00h9.00v9.00h-9.00z M259.00 119.00h9.00v9.00h-9.00z M277.00 119.00h9.00v9.00h-9.00z M294.00 119.00h9.00v9.00h-9.00z M303.00 119.00h9.00v9.00h-9.00z M321.00 119.00h9.00v9.00h-9.00z M48.00 127.00h9.00v9.00h-9.00z M57.00 127.00h9.00v9.00h-9.00z M92.00 127.00h9.00v9.00h-9.00z M101.00 127.00h9.00v9.00h-9.00z M127.00 127.00h9.00v9.00h-9.00z M171.00 127.00h9.00v9.00h-9.00z M189.00 127.00h9.00v9.00h-9.00z M198.00 127.00h9.00v9.00h-9.00z M215.00 127.00h9.00v9.00h-9.00z M224.00 127.00h9.00v9.00h-9.00z M268.00 127.00h9.00v9.00h-9.00z M277.00 127.00h9.00v9.00h-9.00z M286.00 127.00h9.00v9.00h-9.00z M294.00 127.00h9.00v9.00h-9.00z M321.00 127.00h9.00v9.00h-9.00z M40.00 136.00h9.00v9.00h-9.00z M48.00 136.00h9.00v9.00h-9.00z M75.00 136.00h9.00v9.00h-9.00z M83.00 136.00h9.00v9.00h-9.00z M119.00 136.00h9.00v9.00h-9.00z M136.00 136.00h9.00v9.00h-9.00z M163.00 136.00h9.00v9.00h-9.00z M189.00 136.00h9.00v9.00h-9.00z M215.00 136.00h9.00v9.00h-9.00z M224.00 136.00h9.00v9.00h-9.00z M233.00 136.00h9.00v9.00h-9.00z M250.00 136.00h9.00v9.00h-9.00z M259.00 136.00h9.00v9.00h-9.00z M277.00 136.00h9.00v9.00h-9.00z M294.00 136.00h9.00v9.00h-9.00z M312.00 136.00h9.00v9.00h-9.00z M321.00 136.00h9.00v9.00h-9.00z M57.00 145.00h9.00v9.00h-9.00z M92.00 145.00h9.00v9.00h-9.00z M101.00 145.00h9.00v9.00h-9.00z M110.00 145.00h9.00v9.00h-9.00z M119.00 145.00h9.00v9.00h-9.00z M127.00 145.00h9.00v9.00h-9.00z M145.00 145.00h9.00v9.00h-9.00z M180.00 145.00h9.00v9.00h-9.00z M189.00 145.00h9.00v9.00h-9.00z M206.00 145.00h9.00v9.00h-9.00z M224.00 145.00h9.00v9.00h-9.00z M233.00 145.00h9.00v9.00h-9.00z M242.00 145.00h9.00v9.00h-9.00z M259.00 145.00h9.00v9.00h-9.00z M268.00 145.00h9.00v9.00h-9.00z M277.00 145.00h9.00v9.00h-9.00z M286.00 145.00h9.00v9.00h-9.00z M294.00 145.00h9.00v9.00h-9.00z M40.00 154.00h9.00v9.00h-9.00z M57.00 154.00h9.00v9.00h-9.00z M83.00 154.00h9.00v9.00h-9.00z M101.00 154.00h9.00v9.00h-9.00z M127.00 154.00h9.00v9.00h-9.00z M154.00 154.00h9.00v9.00h-9.00z M171.00 154.00h9.00v9.00h-9.00z M189.00 154.00h9.00v9.00h-9.00z M198.00 154.00h9.00v9.00h-9.00z M206.00 154.00h9.00v9.00h-9.00z M242.00 154.00h9.00v9.00h-9.00z M250.00 154.00h9.00v9.00h-9.00z M259.00 154.00h9.00v9.00h-9.00z M268.00 154.00h9.00v9.00h-9.00z M277.00 154.00h9.00v9.00h-9.00z M303.00 154.00h9.00v9.00h-9.00z M312.00 154.00h9.00v9.00h-9.00z M40.00 163.00h9.00v9.00h-9.00z M75.00 163.00h9.00v9.00h-9.00z M92.00 163.00h9.00v9.00h-9.00z M101.00 163.00h9.00v9.00h-9.00z M119.00 163.00h9.00v9.00h-9.00z M145.00 163.00h9.00v9.00h-9.00z M163.00 163.00h9.00v9.00h-9.00z M180.00 163.00h9.00v9.00h-9.00z M189.00 163.00h9.00v9.00h-9.00z M224.00 163.00h9.00v9.00h-9.00z M233.00 163.00h9.00v9.00h-9.00z M242.00 163.00h9.00v9.00h-9.00z M268.00 163.00h9.00v9.00h-9.00z M286.00 163.00h9.00v9.00h-9.00z M294.00 163.00h9.00v9.00h-9.00z M40.00 171.00h9.00v9.00h-9.00z M66.00 171.00h9.00v9.00h-9.00z M83.00 171.00h9.00v9.00h-9.00z M145.00 171.00h9.00v9.00h-9.00z M189.00 171.00h9.00v9.00h-9.00z M198.00 171.00h9.00v9.00h-9.00z M206.00 171.00h9.00v9.00h-9.00z M215.00 171.00h9.00v9.00h-9.00z M268.00 171.00h9.00v9.00h-9.00z M294.00 171.00h9.00v9.00h-9.00z M303.00 171.00h9.00v9.00h-9.00z M40.00 180.00h9.00v9.00h-9.00z M75.00 180.00h9.00v9.00h-9.00z M83.00 180.00h9.00v9.00h-9.00z M92.00 180.00h9.00v9.00h-9.00z M101.00 180.00h9.00v9.00h-9.00z M119.00 180.00h9.00v9.00h-9.00z M136.00 180.00h9.00v9.00h-9.00z M145.00 180.00h9.00v9.00h-9.00z M198.00 180.00h9.00v9.00h-9.00z M206.00 180.00h9.00v9.00h-9.00z M233.00 180.00h9.00v9.00h-9.00z M242.00 180.00h9.00v9.00h-9.00z M250.00 180.00h9.00v9.00h-9.00z M259.00 180.00h9.00v9.00h-9.00z M286.00 180.00h9.00v9.00h-9.00z M303.00 180.00h9.00v9.00h-9.00z M48.00 189.00h9.00v9.00h-9.00z M57.00 189.00h9.00v9.00h-9.00z M66.00 189.00h9.00v9.00h-9.00z M83.00 189.00h9.00v9.00h-9.00z M110.00 189.00h9.00v9.00h-9.00z M119.00 189.00h9.00v9.00h-9.00z M136.00 189.00h9.00v9.00h-9.00z M154.00 189.00h9.00v9.00h-9.00z M189.00 189.00h9.00v9.00h-9.00z M206.00 189.00h9.00v9.00h-9.00z M215.00 189.00h9.00v9.00h-9.00z M224.00 189.00h9.00v9.00h-9.00z M233.00 189.00h9.00v9.00h-9.00z M250.00 189.00h9.00v9.00h-9.00z M259.00 189.00h9.00v9.00h-9.00z M286.00 189.00h9.00v9.00h-9.00z M294.00 189.00h9.00v9.00h-9.00z M321.00 189.00h9.00v9.00h-9.00z M48.00 198.00h9.00v9.00h-9.00z M57.00 198.00h9.00v9.00h-9.00z M75.00 198.00h9.00v9.00h-9.00z M92.00 198.00h9.00v9.00h-9.00z M145.00 198.00h9.00v9.00h-9.00z M171.00 198.00h9.00v9.00h-9.00z M198.00 198.00h9.00v9.00h-9.00z M206.00 198.00h9.00v9.00h-9.00z M224.00 198.00h9.00v9.00h-9.00z M242.00 198.00h9.00v9.00h-9.00z M250.00 198.00h9.00v9.00h-9.00z M268.00 198.00h9.00v9.00h-9.00z M277.00 198.00h9.00v9.00h-9.00z M286.00 198.00h9.00v9.00h-9.00z M303.00 198.00h9.00v9.00h-9.00z M312.00 198.00h9.00v9.00h-9.00z M40.00 206.00h9.00v9.00h-9.00z M66.00 206.00h9.00v9.00h-9.00z M119.00 206.00h9.00v9.00h-9.00z M127.00 206.00h9.00v9.00h-9.00z M136.00 206.00h9.00v9.00h-9.00z M145.00 206.00h9.00v9.00h-9.00z M163.00 206.00h9.00v9.00h-9.00z M180.00 206.00h9.00v9.00h-9.00z M224.00 206.00h9.00v9.00h-9.00z M286.00 206.00h9.00v9.00h-9.00z M312.00 206.00h9.00v9.00h-9.00z M321.00 206.00h9.00v9.00h-9.00z M57.00 215.00h9.00v9.00h-9.00z M83.00 215.00h9.00v9.00h-9.00z M92.00 215.00h9.00v9.00h-9.00z M101.00 215.00h9.00v9.00h-9.00z M145.00 215.00h9.00v9.00h-9.00z M163.00 215.00h9.00v9.00h-9.00z M180.00 215.00h9.00v9.00h-9.00z M198.00 215.00h9.00v9.00h-9.00z M215.00 215.00h9.00v9.00h-9.00z M268.00 215.00h9.00v9.00h-9.00z M277.00 215.00h9.00v9.00h-9.00z M294.00 215.00h9.00v9.00h-9.00z M303.00 215.00h9.00v9.00h-9.00z M312.00 215.00h9.00v9.00h-9.00z M40.00 224.00h9.00v9.00h-9.00z M57.00 224.00h9.00v9.00h-9.00z M66.00 224.00h9.00v9.00h-9.00z M75.00 224.00h9.00v9.00h-9.00z M83.00 224.00h9.00v9.00h-9.00z M110.00 224.00h9.00v9.00h-9.00z M154.00 224.00h9.00v9.00h-9.00z M171.00 224.00h9.00v9.00h-9.00z M189.00 224.00h9.00v9.00h-9.00z M198.00 224.00h9.00v9.00h-9.00z M215.00 224.00h9.00v9.00h-9.00z M233.00 224.00h9.00v9.00h-9.00z M242.00 224.00h9.00v9.00h-9.00z M268.00 224.00h9.00v9.00h-9.00z M303.00 224.00h9.00v9.00h-9.00z M321.00 224.00h9.00v9.00h-9.00z M57.00 233.00h9.00v9.00h-9.00z M83.00 233.00h9.00v9.00h-9.00z M92.00 233.00h9.00v9.00h-9.00z M101.00 233.00h9.00v9.00h-9.00z M119.00 233.00h9.00v9.00h-9.00z M127.00 233.00h9.00v9.00h-9.00z M136.00 233.00h9.00v9.00h-9.00z M163.00 233.00h9.00v9.00h-9.00z M171.00 233.00h9.00v9.00h-9.00z M180.00 233.00h9.00v9.00h-9.00z M189.00 233.00h9.00v9.00h-9.00z M215.00 233.00h9.00v9.00h-9.00z M233.00 233.00h9.00v9.00h-9.00z M286.00 233.00h9.00v9.00h-9.00z M303.00 233.00h9.00v9.00h-9.00z M312.00 233.00h9.00v9.00h-9.00z M321.00 233.00h9.00v9.00h-9.00z M48.00 242.00h9.00v9.00h-9.00z M57.00 242.00h9.00v9.00h-9.00z M75.00 242.00h9.00v9.00h-9.00z M101.00 242.00h9.00v9.00h-9.00z M136.00 242.00h9.00v9.00h-9.00z M145.00 242.00h9.00v9.00h-9.00z M154.00 242.00h9.00v9.00h-9.00z M163.00 242.00h9.00v9.00h-9.00z M189.00 242.00h9.00v9.00h-9.00z M215.00 242.00h9.00v9.00h-9.00z M224.00 242.00h9.00v9.00h-9.00z M233.00 242.00h9.00v9.00h-9.00z M242.00 242.00h9.00v9.00h-9.00z M259.00 242.00h9.00v9.00h-9.00z M277.00 242.00h9.00v9.00h-9.00z M294.00 242.00h9.00v9.00h-9.00z M40.00 250.00h9.00v9.00h-9.00z M66.00 250.00h9.00v9.00h-9.00z M83.00 250.00h9.00v9.00h-9.00z M92.00 250.00h9.00v9.00h-9.00z M119.00 250.00h9.00v9.00h-9.00z M154.00 250.00h9.00v9.00h-9.00z M180.00 250.00h9.00v9.00h-9.00z M206.00 250.00h9.00v9.00h-9.00z M215.00 250.00h9.00v9.00h-9.00z M224.00 250.00h9.00v9.00h-9.00z M233.00 250.00h9.00v9.00h-9.00z M250.00 250.00h9.00v9.00h-9.00z M259.00 250.00h9.00v9.00h-9.00z M268.00 250.00h9.00v9.00h-9.00z M277.00 250.00h9.00v9.00h-9.00z M286.00 250.00h9.00v9.00h-9.00z M294.00 250.00h9.00v9.00h-9.00z M321.00 250.00h9.00v9.00h-9.00z M110.00 259.00h9.00v9.00h-9.00z M136.00 259.00h9.00v9.00h-9.00z M180.00 259.00h9.00v9.00h-9.00z M189.00 259.00h9.00v9.00h-9.00z M198.00 259.00h9.00v9.00h-9.00z M224.00 259.00h9.00v9.00h-9.00z M250.00 259.00h9.00v9.00h-9.00z M286.00 259.00h9.00v9.00h-9.00z M294.00 259.00h9.00v9.00h-9.00z M40.00 268.00h9.00v9.00h-9.00z M48.00 268.00h9.00v9.00h-9.00z M57.00 268.00h9.00v9.00h-9.00z M66.00 268.00h9.00v9.00h-9.00z M75.00 268.00h9.00v9.00h-9.00z M83.00 268.00h9.00v9.00h-9.00z M92.00 268.00h9.00v9.00h-9.00z M119.00 268.00h9.00v9.00h-9.00z M127.00 268.00h9.00v9.00h-9.00z M136.00 268.00h9.00v9.00h-9.00z M163.00 268.00h9.00v9.00h-9.00z M171.00 268.00h9.00v9.00h-9.00z M180.00 268.00h9.00v9.00h-9.00z M224.00 268.00h9.00v9.00h-9.00z M233.00 268.00h9.00v9.00h-9.00z M250.00 268.00h9.00v9.00h-9.00z M268.00 268.00h9.00v9.00h-9.00z M286.00 268.00h9.00v9.00h-9.00z M40.00 277.00h9.00v9.00h-9.00z M92.00 277.00h9.00v9.00h-9.00z M119.00 277.00h9.00v9.00h-9.00z M127.00 277.00h9.00v9.00h-9.00z M136.00 277.00h9.00v9.00h-9.00z M145.00 277.00h9.00v9.00h-9.00z M198.00 277.00h9.00v9.00h-9.00z M206.00 277.00h9.00v9.00h-9.00z M242.00 277.00h9.00v9.00h-9.00z M250.00 277.00h9.00v9.00h-9.00z M286.00 277.00h9.00v9.00h-9.00z M294.00 277.00h9.00v9.00h-9.00z M303.00 277.00h9.00v9.00h-9.00z M312.00 277.00h9.00v9.00h-9.00z M321.00 277.00h9.00v9.00h-9.00z M40.00 286.00h9.00v9.00h-9.00z M57.00 286.00h9.00v9.00h-9.00z M66.00 286.00h9.00v9.00h-9.00z M75.00 286.00h9.00v9.00h-9.00z M92.00 286.00h9.00v9.00h-9.00z M110.00 286.00h9.00v9.00h-9.00z M154.00 286.00h9.00v9.00h-9.00z M171.00 286.00h9.00v9.00h-9.00z M189.00 286.00h9.00v9.00h-9.00z M198.00 286.00h9.00v9.00h-9.00z M233.00 286.00h9.00v9.00h-9.00z M250.00 286.00h9.00v9.00h-9.00z M259.00 286.00h9.00v9.00h-9.00z M268.00 286.00h9.00v9.00h-9.00z M277.00 286.00h9.00v9.00h-9.00z M286.00 286.00h9.00v9.00h-9.00z M303.00 286.00h9.00v9.00h-9.00z M312.00 286.00h9.00v9.00h-9.00z M40.00 294.00h9.00v9.00h-9.00z M57.00 294.00h9.00v9.00h-9.00z M66.00 294.00h9.00v9.00h-9.00z M75.00 294.00h9.00v9.00h-9.00z M92.00 294.00h9.00v9.00h-9.00z M110.00 294.00h9.00v9.00h-9.00z M127.00 294.00h9.00v9.00h-9.00z M154.00 294.00h9.00v9.00h-9.00z M163.00 294.00h9.00v9.00h-9.00z M180.00 294.00h9.00v9.00h-9.00z M198.00 294.00h9.00v9.00h-9.00z M206.00 294.00h9.00v9.00h-9.00z M215.00 294.00h9.00v9.00h-9.00z M250.00 294.00h9.00v9.00h-9.00z M268.00 294.00h9.00v9.00h-9.00z M277.00 294.00h9.00v9.00h-9.00z M303.00 294.00h9.00v9.00h-9.00z M321.00 294.00h9.00v9.00h-9.00z M40.00 303.00h9.00v9.00h-9.00z M57.00 303.00h9.00v9.00h-9.00z M66.00 303.00h9.00v9.00h-9.00z M75.00 303.00h9.00v9.00h-9.00z M92.00 303.00h9.00v9.00h-9.00z M110.00 303.00h9.00v9.00h-9.00z M119.00 303.00h9.00v9.00h-9.00z M127.00 303.00h9.00v9.00h-9.00z M145.00 303.00h9.00v9.00h-9.00z M163.00 303.00h9.00v9.00h-9.00z M171.00 303.00h9.00v9.00h-9.00z M198.00 303.00h9.00v9.00h-9.00z M206.00 303.00h9.00v9.00h-9.00z M233.00 303.00h9.00v9.00h-9.00z M250.00 303.00h9.00v9.00h-9.00z M277.00 303.00h9.00v9.00h-9.00z M294.00 303.00h9.00v9.00h-9.00z M303.00 303.00h9.00v9.00h-9.00z M40.00 312.00h9.00v9.00h-9.00z M92.00 312.00h9.00v9.00h-9.00z M119.00 312.00h9.00v9.00h-9.00z M127.00 312.00h9.00v9.00h-9.00z M163.00 312.00h9.00v9.00h-9.00z M171.00 312.00h9.00v9.00h-9.00z M180.00 312.00h9.00v9.00h-9.00z M206.00 312.00h9.00v9.00h-9.00z M215.00 312.00h9.00v9.00h-9.00z M224.00 312.00h9.00v9.00h-9.00z M259.00 312.00h9.00v9.00h-9.00z M268.00 312.00h9.00v9.00h-9.00z M277.00 312.00h9.00v9.00h-9.00z M286.00 312.00h9.00v9.00h-9.00z M321.00 312.00h9.00v9.00h-9.00z M40.00 321.00h9.00v9.00h-9.00z M48.00 321.00h9.00v9.00h-9.00z M57.00 321.00h9.00v9.00h-9.00z M66.00 321.00h9.00v9.00h-9.00z M75.00 321.00h9.00v9.00h-9.00z M83.00 321.00h9.00v9.00h-9.00z M92.00 321.00h9.00v9.00h-9.00z M110.00 321.00h9.00v9.00h-9.00z M119.00 321.00h9.00v9.00h-9.00z M127.00 321.00h9.00v9.00h-9.00z M136.00 321.00h9.00v9.00h-9.00z M171.00 321.00h9.00v9.00h-9.00z M189.00 321.00h9.00v9.00h-9.00z M198.00 321.00h9.00v9.00h-9.00z M215.00 321.00h9.00v9.00h-9.00z M242.00 321.00h9.00v9.00h-9.00z M250.00 321.00h9.00v9.00h-9.00z M259.00 321.00h9.00v9.00h-9.00z M268.00 321.00h9.00v9.00h-9.00z M286.00 321.00h9.00v9.00h-9.00z M303.00 321.00h9.00v9.00h-9.00z"/>
</g>
  <rect x="940" y="352" width="170" height="52" rx="12" fill="#04120f"/>
  <text x="1025" y="386" text-anchor="middle" font-family="Arial, PingFang SC, Microsoft YaHei, sans-serif" font-size="25" font-weight="850" fill="#f6f3e8">进入演示</text>

  <g opacity="0.88">
    <circle cx="180" cy="218" r="16" fill="#39e59f"/>
    <circle cx="1080" cy="462" r="16" fill="#836bff"/>
    <circle cx="180" cy="1178" r="16" fill="#ffb33d"/>
    <circle cx="1080" cy="1178" r="16" fill="#35a9ff"/>
    <path d="M168 246 H310 M940 462 H1082 M168 1148 H310 M940 1148 H1082" stroke="#04120f" stroke-width="5" stroke-linecap="round"/>
  </g>

  <g opacity="0.95" fill="#04120f">
    <rect x="116" y="336" width="38" height="150" rx="6"/>
    <rect x="116" y="536" width="38" height="86" rx="6"/>
    <rect x="116" y="676" width="38" height="188" rx="6"/>
    <rect x="1096" y="532" width="38" height="104" rx="6"/>
    <rect x="1096" y="700" width="38" height="178" rx="6"/>
    <rect x="1096" y="946" width="38" height="116" rx="6"/>
    <path d="M196 1010 L300 1010 L300 1046 L236 1046 L236 1082 L196 1082 Z"/>
    <path d="M1054 994 L950 1050 L1054 1106 Z"/>
    <rect x="230" y="760" width="790" height="20" rx="10" opacity="0.35"/>
    <rect x="278" y="830" width="694" height="16" rx="8" opacity="0.28"/>
    <rect x="360" y="1118" width="530" height="20" rx="10" opacity="0.38"/>
  </g>

  <text x="625" y="252" text-anchor="middle" font-family="Arial, PingFang SC, Microsoft YaHei, sans-serif" font-size="92" font-weight="850" letter-spacing="0" fill="#04120f">增强现实乐器</text>
  <text x="625" y="378" text-anchor="middle" font-family="Arial, PingFang SC, Microsoft YaHei, sans-serif" font-size="132" font-weight="900" letter-spacing="0" fill="#04120f">合成器</text>
  <text x="625" y="502" text-anchor="middle" font-family="Arial, Helvetica, sans-serif" font-size="76" font-weight="760" letter-spacing="0" fill="#244a55">synthesizer</text>

  <g id="non-qr-data-signature" fill="#04120f" opacity="0.92">
    <rect x="298.0" y="570" width="17.7" height="32" rx="4"/>
    <rect x="353.3" y="570" width="17.7" height="32" rx="4"/>
    <rect x="381.0" y="570" width="17.7" height="32" rx="4"/>
    <rect x="436.3" y="570" width="17.7" height="32" rx="4"/>
    <rect x="519.3" y="570" width="17.7" height="32" rx="4"/>
    <rect x="547.0" y="570" width="17.7" height="32" rx="4"/>
    <rect x="574.6" y="570" width="17.7" height="32" rx="4"/>
    <rect x="657.6" y="570" width="17.7" height="32" rx="4"/>
    <rect x="713.0" y="570" width="17.7" height="32" rx="4"/>
    <rect x="740.6" y="570" width="17.7" height="32" rx="4"/>
    <rect x="796.0" y="570" width="17.7" height="32" rx="4"/>
    <rect x="879.0" y="570" width="17.7" height="32" rx="4"/>
    <rect x="906.6" y="570" width="17.7" height="32" rx="4"/>
    <rect x="934.3" y="570" width="17.7" height="32" rx="4"/>
  </g>

  <text x="625" y="1204" text-anchor="middle" font-family="Arial, Helvetica, sans-serif" font-size="34" font-weight="850" letter-spacing="0" fill="#244a55">Secure AR Demo</text>
</svg>
